<svg aria-hidden="true" style="position: absolute; width: 0; height: 0; overflow: hidden;" version="1.1" xmlns="http://www.w3.org/2000/svg" xmlns:xlink="http://www.w3.org/1999/xlink">
<defs>
<symbol id="icon-third" viewBox="0 0 32 32">
<path fill="#fdffc2" style="fill: var(--color1, #fdffc2)" d="M16 3.25c-2.522 0-4.987 0.748-7.084 2.149s-3.731 3.392-4.696 5.722c-0.965 2.33-1.218 4.893-0.726 7.367s1.706 4.745 3.489 6.528c1.783 1.783 4.055 2.997 6.528 3.489s5.037 0.239 7.367-0.726c2.33-0.965 4.321-2.599 5.722-4.696s2.149-4.562 2.149-7.084c-0.004-3.38-1.349-6.621-3.739-9.011s-5.631-3.735-9.011-3.739zM27.236 15.43c-3.875 2.796-6.707 1.92-9.741 0.469 2.679-1.844 5.284-4.151 5.189-8.943 1.338 0.988 2.44 2.261 3.227 3.726s1.24 3.087 1.325 4.748zM21.125 5.986c0.48 4.75-1.691 6.766-4.464 8.668-0.259-3.242-0.953-6.654-5.154-8.966 1.525-0.666 3.179-0.984 4.842-0.932s3.294 0.472 4.775 1.231zM9.893 6.556c4.357 1.963 5.011 4.847 5.272 8.194-2.938-1.398-6.24-2.5-10.344-0.021 0.19-1.652 0.743-3.242 1.62-4.655s2.056-2.614 3.452-3.518zM4.768 16.57c3.881-2.796 6.707-1.92 9.741-0.469-2.682 1.844-5.288 4.149-5.193 8.943-1.338-0.988-2.44-2.261-3.228-3.726s-1.24-3.087-1.325-4.748h0.004zM10.875 26.014c-0.48-4.75 1.691-6.766 4.464-8.668 0.258 3.242 0.951 6.655 5.152 8.966-1.525 0.665-3.179 0.984-4.842 0.932s-3.294-0.472-4.774-1.231zM22.106 25.444c-4.356-1.962-5.010-4.848-5.271-8.194 1.67 0.795 3.459 1.5 5.445 1.5 1.508 0 3.125-0.404 4.899-1.474-0.191 1.651-0.744 3.24-1.621 4.652s-2.055 2.613-3.45 3.516h-0.001z"></path>
</symbol>
<symbol id="icon-second" viewBox="0 0 32 32">
<path fill="#fdffc2" style="fill: var(--color1, #fdffc2)" d="M28 6c0-0.53-0.211-1.039-0.586-1.414s-0.884-0.586-1.414-0.586h-4v-2h-2v2h-8v-2h-2v2h-4c-0.53 0-1.039 0.211-1.414 0.586s-0.586 0.884-0.586 1.414v20c0 0.53 0.211 1.039 0.586 1.414s0.884 0.586 1.414 0.586h4v-2h-4v-20h4v2h2v-2h8v2h2v-2h4v6h2v-6z"></path>
<path fill="#fdffc2" style="fill: var(--color1, #fdffc2)" d="M21 15l2.549 4.938 5.451 0.791-4 3.844 1 5.427-5-2.562-5 2.562 1-5.427-4-3.844 5.6-0.791 2.4-4.938z"></path>
</symbol>
<symbol id="icon-cross" viewBox="0 0 32 32">
<path fill="none" stroke="#172a54" style="stroke: var(--color2, #172a54)" stroke-linejoin="round" stroke-linecap="round" stroke-miterlimit="4" stroke-width="1.0909" d="M20.166 20.893l-9.257-9.257"></path>
<path fill="none" stroke="#172a54" style="stroke: var(--color2, #172a54)" stroke-linejoin="round" stroke-linecap="round" stroke-miterlimit="4" stroke-width="1.0909" d="M20.405 11.636l-9.257 9.257"></path>
</symbol>
<symbol id="icon-burger" viewBox="0 0 32 32">
<path fill="none" stroke="#172a54" style="stroke: var(--color2, #172a54)" stroke-linejoin="miter" stroke-linecap="round" stroke-miterlimit="4" stroke-width="1.0909" d="M9.455 12.364h13.091"></path>
<path fill="none" stroke="#172a54" style="stroke: var(--color2, #172a54)" stroke-linejoin="miter" stroke-linecap="round" stroke-miterlimit="4" stroke-width="1.0909" d="M9.455 16h13.091"></path>
<path fill="none" stroke="#172a54" style="stroke: var(--color2, #172a54)" stroke-linejoin="miter" stroke-linecap="round" stroke-miterlimit="4" stroke-width="1.0909" d="M9.455 19.636h13.091"></path>
</symbol>
<symbol id="icon-extra" viewBox="0 0 31 32">
<path fill="#fff943" style="fill: var(--color3, #fff943)" d="M9.961 0.727c-4.283 1.695-6.81 6.81-5.023 14.113 0.154 0.647 1.325 1.572 1.417 2.188 0.061 0.617-0.986 0.925-1.017 1.479 0 1.109-0.185 2.095-0.401 2.989l-2.188-0.524c-0.77 0.894-1.479 1.726-1.849 2.619-0.246 0.647-0.401 1.417-0.061 2.157 5.947 3.729 16.024 5.547 22.002 5.608 0.893 0.031 1.201-0.154 1.51-0.801 0.092-0.216 0.216-0.524 0.339-0.894 0.277-0.739 0.555-1.756 0.801-3.020 0.216-1.232 0.37-2.712 0.308-4.252 0-0.801-2.003-1.387-1.942-2.219 0.031-0.616 1.664-1.479 1.079-2.681-1.386-2.835-0.986-4.992-0.154-6.718 0.801-1.757 2.434-3.266 4.869-4.9 0.709-0.493 0.493-1.602-0.37-1.756l-18.797-3.451c-0.185-0.061-0.37 0-0.524 0.061zM10.485 2.637l16.362 2.989c-1.633 1.294-3.050 2.65-3.821 4.314-1.048 2.249-1.048 4.56 0.093 7.796 0.247 0.739-1.787 1.941-1.664 2.65 0.123 0.739 2.311 1.726 2.342 2.434 0.031 1.387 0 2.342-0.216 3.482-0.185 1.14-0.401 2.095-0.709 2.742-0.277 0.462-1.048 0.062-1.325-0.924-0.308-1.202-0.154-1.849 0.524-2.773-5.085-0.432-10.169-1.479-15.253-3.39 0.277-0.955 0.462-1.51 0.493-2.773 0-0.616 1.048-0.678 0.955-1.387-0.061-0.739-1.264-2.619-1.448-3.42-1.633-6.564 0.493-10.354 3.667-11.74zM12.457 3.284l-1.479 1.233c-0.616 0-1.202 0.308-1.602 0.77l-1.325 0.308 0.832 0.863c-0.092 0.678 0.123 1.387 0.647 1.849l-0.154 1.849 1.325-1.325c0.678 0.031 1.356-0.247 1.787-0.77l1.14-0.154-0.617-1.017c0.062-0.678-0.154-1.387-0.647-1.849l0.092-1.757zM11.070 5.811c0.061 0 0.154 0 0.216 0.031 0.462 0.216 0.585 0.833 0.339 1.233-0.216 0.431-0.801 0.647-1.171 0.339-0.462-0.339-0.401-1.048 0-1.386 0.154-0.154 0.401-0.247 0.616-0.216zM16.956 8.492l-1.079 0.678 0.925 1.51-1.387 0.709 0.585 1.14 1.448-0.74 1.171 1.88 1.079-0.678-1.078-1.787 1.756-0.894-0.586-1.14-1.849 0.925-0.986-1.603zM13.998 11.080l-0.616 0.123c-0.709 0.216-1.417 0.586-1.972 1.109l0.863 0.955c0.555-0.524 1.264-0.832 2.003-0.955l-0.277-1.232zM10.515 13.484l-0.277 0.493c-0.162 0.425-0.306 0.857-0.432 1.294l-0.092 0.894 1.294 0.123c0.031-0.493 0.092-0.986 0.277-1.448 0.061-0.277 0.216-0.493 0.339-0.709l-1.11-0.647zM11.070 17.336l-1.232 0.339c0.154 0.524 0.277 1.078 0.586 1.541 0.154 0.37 0.37 0.678 0.585 0.986l1.048-0.77c-0.308-0.431-0.585-0.893-0.77-1.417l-0.216-0.678zM12.827 20.202l-0.77 1.048c0.709 0.555 1.572 0.955 2.404 1.264l0.493-1.171c-0.77-0.308-1.51-0.617-2.126-1.14zM16.155 21.835l-0.524 1.171c0.647 0.308 1.294 0.709 1.694 1.356l1.079-0.709c-0.246-0.401-0.555-0.709-0.924-1.017-0.412-0.314-0.856-0.583-1.325-0.802z"></path>
</symbol>
</defs>
</svg>
